<?xml version="1.0" encoding="UTF-8"?>
<svg width="217" height="37" viewBox="0 0 217 37" fill="none" xmlns="http://www.w3.org/2000/svg">
<path d="M182.641 30.7778C182.641 30.2869 182.311 29.9597 181.817 29.9597H167.473C166.978 29.9597 166.649 30.2869 166.649 30.7778C166.649 31.2687 166.978 31.596 167.473 31.596H181.817C182.311 31.596 182.641 31.1869 182.641 30.7778Z" fill="white"/>
<path d="M170.77 34.0505H169.122C168.627 34.0505 168.297 34.3778 168.297 34.8687C168.297 35.3596 168.627 35.6869 169.122 35.6869H170.77C171.265 35.6869 171.595 35.3596 171.595 34.8687C171.595 34.3778 171.265 34.0505 170.77 34.0505Z" fill="white"/>
<path d="M174.645 26.6869C174.645 26.196 174.315 25.8687 173.821 25.8687H165.824C165.33 25.8687 165 26.196 165 26.6869C165 27.1778 165.33 27.5051 165.824 27.5051H173.821C174.315 27.5051 174.645 27.096 174.645 26.6869Z" fill="white"/>
<path d="M215.615 28.0778C215.368 27.5869 214.873 27.1778 214.379 26.9324L208.113 24.5596L205.558 23.6596C204.816 23.3324 204.157 22.8414 203.744 22.1869L201.601 18.6687C202.013 18.5869 202.261 18.2596 202.261 17.8505C202.261 17.3596 201.931 17.0324 201.436 17.0324H200.612L199.623 15.396C200.035 15.3142 200.282 14.9869 200.282 14.5778C200.282 14.0869 199.952 13.7596 199.458 13.7596H198.633L197.809 12.4505C198.139 12.3687 198.386 12.0414 198.386 11.7142C198.386 11.2233 198.056 10.896 197.562 10.896H196.82L195.748 9.17781C195.748 9.17781 195.748 9.09599 195.666 9.09599C194.677 7.95054 193.358 7.37781 191.956 7.54145C190.72 7.70508 189.73 8.44145 189.318 9.34145C189.236 9.5869 189.236 9.83236 189.401 10.0778L196.243 21.696C196.325 21.8596 196.49 22.0233 196.655 22.0233L205.063 25.2142H205.146L207.619 26.1142L213.801 28.4869C213.966 28.5687 214.131 28.6505 214.214 28.896C214.543 29.5505 214.543 30.2051 214.131 30.8596H200.694C199.87 30.8596 199.046 30.6142 198.386 30.1233L175.387 13.1869C175.387 13.1869 175.717 13.0233 176.129 12.4505C176.541 11.8778 176.706 11.1414 176.706 10.4051L175.964 3.53236L176.953 1.97781C177.2 1.65054 177.695 1.56872 178.025 1.81417C178.272 2.05963 179.261 2.87781 181.652 6.72327C182.888 8.52327 184.867 9.83236 187.093 10.1596C187.505 10.2414 187.999 9.91417 188.082 9.50508C188.164 9.09599 187.834 8.60508 187.422 8.52327C185.691 8.19599 184.042 7.21417 183.053 5.74145C180.168 1.32327 179.344 0.66872 179.014 0.423266C177.942 -0.313098 176.458 -0.0676435 175.634 0.995993L170.606 8.93236C170.276 9.42327 170.193 9.99599 170.276 10.5687C169.781 10.7324 169.287 10.9778 169.039 11.4687L167.72 13.5142C166.978 14.5778 167.308 16.0505 168.38 16.7869C169.122 17.3596 170.688 18.3414 172.996 19.8142C173.161 19.896 173.326 19.9778 173.408 19.9778C173.656 19.9778 173.903 19.8142 174.068 19.5687C174.315 19.1596 174.233 18.6687 173.821 18.4233C171.595 16.9505 170.028 15.9687 169.287 15.396C168.957 15.1505 168.874 14.7414 169.122 14.3324L170.358 12.4505C170.606 12.1233 171.1 12.0414 171.43 12.2869L197.314 31.4324C198.304 32.1687 199.458 32.496 200.612 32.496H211.988C210.257 33.3142 207.866 34.0505 205.805 34.0505H202.92H200.529C199.128 34.0505 197.727 33.6415 196.573 32.9051C191.791 29.8778 182.888 24.2324 176.376 20.0596C175.964 19.8142 175.469 19.896 175.222 20.3051C174.975 20.7142 175.057 21.2051 175.469 21.4505C181.817 25.5414 190.472 31.0233 195.336 34.1324H174.068C173.573 34.1324 173.243 34.4596 173.243 34.9505C173.243 35.4414 173.573 35.7687 174.068 35.7687H200.529H202.92H205.723C209.103 35.7687 213.966 33.9687 215.203 32.2505C216.275 30.7778 216.357 29.3869 215.615 28.0778ZM197.397 20.7142L190.967 9.83236C191.214 9.5869 191.626 9.34145 192.121 9.25963C192.616 9.17781 193.522 9.25963 194.347 10.1596L194.841 10.9778H194.1C193.605 10.9778 193.275 11.3051 193.275 11.796C193.275 12.2869 193.605 12.6142 194.1 12.6142H195.831L196.655 13.9233H195.996C195.501 13.9233 195.171 14.2505 195.171 14.7414C195.171 15.2324 195.501 15.5596 195.996 15.5596H197.644L198.633 17.1142H197.974C197.479 17.1142 197.15 17.4414 197.15 17.9324C197.15 18.4233 197.479 18.7505 197.974 18.7505H199.623L201.931 22.3505L197.397 20.7142ZM172.007 9.83236L174.562 5.82327L175.057 10.5687C175.057 10.896 174.975 11.2233 174.81 11.4687C174.645 11.7142 174.315 12.3687 173.573 11.796C173.573 11.796 173.161 11.5505 172.419 10.9778C171.925 10.5687 171.842 10.1596 172.007 9.83236Z" fill="white"/>
<path d="M0.904297 36V14.6719H7.4668C9.3418 14.6719 11.0166 15.0967 12.4912 15.9463C13.9756 16.7861 15.1328 17.9873 15.9629 19.5498C16.793 21.1025 17.208 22.8701 17.208 24.8525V25.834C17.208 27.8164 16.7979 29.5791 15.9775 31.1221C15.167 32.665 14.0195 33.8613 12.5352 34.7109C11.0508 35.5605 9.37598 35.9902 7.51074 36H0.904297ZM5.29883 18.2314V32.4697H7.42285C9.1416 32.4697 10.4551 31.9082 11.3633 30.7852C12.2715 29.6621 12.7354 28.0557 12.7549 25.9658V24.8379C12.7549 22.6699 12.3057 21.0293 11.4072 19.916C10.5088 18.793 9.19531 18.2314 7.4668 18.2314H5.29883ZM32.1348 31.6055H24.4297L22.9648 36H18.292L26.2314 14.6719H30.3037L38.2871 36H33.6143L32.1348 31.6055ZM25.6162 28.0459H30.9482L28.2676 20.0625L25.6162 28.0459ZM57.623 36H53.2285L44.6738 21.9668V36H40.2793V14.6719H44.6738L53.2432 28.7344V14.6719H57.623V36ZM72.5205 30.4043C72.5205 29.5742 72.2275 28.9395 71.6416 28.5C71.0557 28.0508 70.001 27.582 68.4775 27.0938C66.9541 26.5957 65.748 26.1074 64.8594 25.6289C62.4375 24.3203 61.2266 22.5576 61.2266 20.3408C61.2266 19.1885 61.5488 18.1631 62.1934 17.2646C62.8477 16.3564 63.7803 15.6484 64.9912 15.1406C66.2119 14.6328 67.5791 14.3789 69.0928 14.3789C70.6162 14.3789 71.9736 14.6572 73.165 15.2139C74.3564 15.7607 75.2793 16.5371 75.9336 17.543C76.5977 18.5488 76.9297 19.6914 76.9297 20.9707H72.5352C72.5352 19.9941 72.2275 19.2373 71.6123 18.7002C70.9971 18.1533 70.1328 17.8799 69.0195 17.8799C67.9453 17.8799 67.1104 18.1094 66.5146 18.5684C65.9189 19.0176 65.6211 19.6133 65.6211 20.3555C65.6211 21.0488 65.9678 21.6299 66.6611 22.0986C67.3643 22.5674 68.3945 23.0068 69.752 23.417C72.252 24.1689 74.0732 25.1016 75.2158 26.2148C76.3584 27.3281 76.9297 28.7148 76.9297 30.375C76.9297 32.2207 76.2314 33.6709 74.835 34.7256C73.4385 35.7705 71.5586 36.293 69.1953 36.293C67.5547 36.293 66.0605 35.9951 64.7129 35.3994C63.3652 34.7939 62.335 33.9688 61.6221 32.9238C60.9189 31.8789 60.5674 30.668 60.5674 29.291H64.9766C64.9766 31.6445 66.3828 32.8213 69.1953 32.8213C70.2402 32.8213 71.0557 32.6113 71.6416 32.1914C72.2275 31.7617 72.5205 31.166 72.5205 30.4043ZM97.2764 36H92.8818V26.8594H84.3125V36H79.918V14.6719H84.3125V23.3145H92.8818V14.6719H97.2764V36ZM118.648 25.8193C118.648 27.9189 118.277 29.7598 117.535 31.3418C116.793 32.9238 115.729 34.1445 114.342 35.0039C112.965 35.8633 111.383 36.293 109.596 36.293C107.828 36.293 106.251 35.8682 104.864 35.0186C103.478 34.1689 102.403 32.958 101.642 31.3857C100.88 29.8037 100.494 27.9873 100.484 25.9365V24.8818C100.484 22.7822 100.86 20.9365 101.612 19.3447C102.374 17.7432 103.443 16.5176 104.82 15.668C106.207 14.8086 107.789 14.3789 109.566 14.3789C111.344 14.3789 112.921 14.8086 114.298 15.668C115.685 16.5176 116.754 17.7432 117.506 19.3447C118.268 20.9365 118.648 22.7773 118.648 24.8672V25.8193ZM114.195 24.8525C114.195 22.6162 113.795 20.917 112.994 19.7549C112.193 18.5928 111.051 18.0117 109.566 18.0117C108.092 18.0117 106.954 18.5879 106.153 19.7402C105.353 20.8828 104.947 22.5625 104.938 24.7793V25.8193C104.938 27.9971 105.338 29.6865 106.139 30.8877C106.939 32.0889 108.092 32.6895 109.596 32.6895C111.07 32.6895 112.203 32.1133 112.994 30.9609C113.785 29.7988 114.186 28.1094 114.195 25.8926V24.8525ZM134.674 26.7568H126.236V32.4697H136.139V36H121.842V14.6719H136.109V18.2314H126.236V23.3145H134.674V26.7568ZM149.776 30.4043C149.776 29.5742 149.483 28.9395 148.897 28.5C148.312 28.0508 147.257 27.582 145.733 27.0938C144.21 26.5957 143.004 26.1074 142.115 25.6289C139.693 24.3203 138.482 22.5576 138.482 20.3408C138.482 19.1885 138.805 18.1631 139.449 17.2646C140.104 16.3564 141.036 15.6484 142.247 15.1406C143.468 14.6328 144.835 14.3789 146.349 14.3789C147.872 14.3789 149.229 14.6572 150.421 15.2139C151.612 15.7607 152.535 16.5371 153.189 17.543C153.854 18.5488 154.186 19.6914 154.186 20.9707H149.791C149.791 19.9941 149.483 19.2373 148.868 18.7002C148.253 18.1533 147.389 17.8799 146.275 17.8799C145.201 17.8799 144.366 18.1094 143.771 18.5684C143.175 19.0176 142.877 19.6133 142.877 20.3555C142.877 21.0488 143.224 21.6299 143.917 22.0986C144.62 22.5674 145.65 23.0068 147.008 23.417C149.508 24.1689 151.329 25.1016 152.472 26.2148C153.614 27.3281 154.186 28.7148 154.186 30.375C154.186 32.2207 153.487 33.6709 152.091 34.7256C150.694 35.7705 148.814 36.293 146.451 36.293C144.811 36.293 143.316 35.9951 141.969 35.3994C140.621 34.7939 139.591 33.9688 138.878 32.9238C138.175 31.8789 137.823 30.668 137.823 29.291H142.232C142.232 31.6445 143.639 32.8213 146.451 32.8213C147.496 32.8213 148.312 32.6113 148.897 32.1914C149.483 31.7617 149.776 31.166 149.776 30.4043Z" fill="white"/>
</svg>

